<?xml version="1.0" encoding="UTF-8" standalone="no"?>
<!DOCTYPE svg PUBLIC "-//W3C//DTD SVG 1.1//EN" "http://www.w3.org/Graphics/SVG/1.1/DTD/svg11.dtd">
<svg xmlns="http://www.w3.org/2000/svg" version="1.1" viewBox="0.00 0.00 286.00 442.00">
<path d="
  M 197.38 203.50
  Q 197.29 203.25 197.16 203.00
  Q 196.92 202.53 197.21 202.08
  Q 197.58 201.52 197.52 200.81
  Q 197.46 200.05 197.54 199.28
  Q 201.26 167.14 205.99 133.52
  Q 206.95 126.72 208.38 121.10
  Q 209.79 115.55 212.29 109.08
  Q 215.25 101.43 218.85 93.94
  Q 220.63 90.24 225.32 82.89
  Q 229.22 76.76 232.40 72.59
  Q 243.84 57.55 259.42 46.07
  C 263.11 43.35 267.21 41.23 271.22 38.54
  A 2.27 2.27 0.0 0 1 274.75 40.25
  Q 274.92 42.39 274.92 44.22
  Q 275.08 196.18 274.97 347.86
  Q 274.97 351.89 270.87 351.91
  Q 239.72 352.06 207.41 351.99
  Q 204.54 351.98 202.04 353.25
  A 1.47 1.45 80.9 0 0 201.26 354.34
  C 199.74 365.29 195.22 374.99 190.64 384.92
  Q 187.69 391.30 183.31 397.07
  C 177.71 404.46 172.26 411.57 165.27 417.62
  Q 159.11 422.95 152.83 428.22
  Q 149.66 430.89 146.85 434.46
  Q 143.99 438.10 140.96 434.35
  C 138.54 431.34 136.05 428.62 132.95 426.30
  Q 113.37 411.71 100.26 390.33
  C 96.71 384.53 94.17 377.96 91.48 371.60
  Q 88.94 365.59 86.68 356.64
  Q 86.46 355.77 86.49 354.91
  C 86.56 352.38 82.05 351.95 80.30 351.96
  Q 51.29 352.05 17.15 351.96
  Q 13.00 351.95 13.00 347.80
  Q 13.00 197.57 12.99 46.84
  Q 12.99 43.58 13.14 40.25
  C 13.30 36.87 16.25 37.99 17.93 39.01
  C 36.66 50.40 51.82 65.17 62.98 83.21
  Q 65.10 86.65 67.27 90.15
  Q 70.70 95.69 75.72 108.83
  Q 78.29 115.54 79.73 121.00
  Q 81.23 126.73 82.16 133.79
  Q 86.27 165.23 90.23 196.17
  Q 91.24 204.02 91.98 212.68
  Q 92.70 221.10 93.43 229.01
  A 2.48 2.48 0.0 0 1 91.22 231.71
  Q 88.89 231.96 86.56 232.37
  Q 72.53 234.82 68.97 247.07
  C 66.51 255.58 68.58 263.75 75.19 269.98
  Q 78.56 273.15 83.53 274.41
  Q 89.00 275.81 94.56 276.87
  C 98.76 277.68 100.25 274.38 102.18 270.64
  Q 107.52 260.30 111.21 252.18
  Q 114.40 245.14 117.28 236.60
  Q 120.00 228.52 122.59 220.70
  Q 123.60 217.65 124.67 214.25
  Q 125.65 211.13 126.42 207.69
  C 129.03 195.95 131.57 184.11 132.51 171.77
  Q 133.87 153.96 132.20 132.47
  C 130.81 114.52 129.99 96.74 128.78 78.65
  C 128.14 68.91 127.94 59.62 127.74 50.00
  C 127.60 43.43 127.68 36.88 129.48 30.66
  Q 133.12 18.07 140.62 8.03
  C 142.54 5.47 144.87 4.85 147.03 7.66
  Q 154.58 17.48 158.25 29.85
  Q 159.94 35.55 160.05 43.26
  Q 160.33 61.59 159.65 72.00
  Q 158.28 92.98 157.10 113.01
  Q 156.51 123.11 155.71 132.97
  Q 154.04 153.36 155.70 173.76
  Q 157.03 189.98 163.22 213.84
  C 165.11 221.13 168.37 229.27 170.83 236.91
  Q 172.30 241.48 174.14 245.95
  Q 179.65 259.26 187.34 273.49
  C 188.63 275.88 190.59 277.54 193.50 276.86
  Q 199.82 275.38 204.98 274.21
  C 210.26 273.01 214.73 269.43 217.28 264.58
  Q 221.26 257.00 219.30 248.14
  Q 218.09 242.69 215.08 239.46
  C 210.73 234.80 204.41 232.38 197.95 231.95
  Q 194.24 231.70 194.59 228.25
  Q 195.83 216.23 197.08 204.32
  Q 197.10 204.06 197.29 203.88
  Q 197.32 203.84 197.35 203.80
  Q 197.44 203.65 197.38 203.50
  Z
  M 240.10 100.51
  C 236.88 107.06 233.17 114.03 231.33 120.76
  Q 228.26 132.01 227.43 137.50
  Q 225.21 152.02 221.66 184.52
  Q 221.58 185.24 221.50 185.98
  Q 220.49 195.54 219.27 206.01
  C 218.96 208.65 218.20 214.43 220.43 215.90
  Q 225.94 219.52 229.21 222.90
  Q 234.91 228.78 239.30 238.05
  Q 242.20 244.19 249.11 243.01
  C 252.96 242.35 253.00 240.32 253.00 236.96
  Q 252.96 162.66 253.00 88.11
  Q 253.00 85.69 250.58 85.36
  Q 250.07 85.29 249.78 85.72
  Q 247.68 88.80 245.07 91.82
  Q 243.45 93.69 240.10 100.51
  Z
  M 66.41 184.48
  Q 66.37 184.13 66.33 183.77
  Q 64.33 165.57 61.40 144.06
  Q 60.37 136.46 58.88 129.68
  Q 57.01 121.18 54.65 115.13
  Q 50.94 105.66 45.35 95.78
  C 43.67 92.82 41.60 90.12 39.64 87.35
  Q 38.70 86.01 36.55 85.94
  Q 34.98 85.89 34.98 87.45
  Q 35.02 170.39 34.99 238.43
  Q 34.98 242.58 39.21 243.04
  C 42.15 243.36 46.76 243.07 48.01 239.84
  Q 51.08 231.94 56.63 225.11
  C 59.71 221.33 63.56 218.72 67.51 215.97
  C 69.50 214.59 69.10 211.76 68.94 209.75
  Q 67.93 196.98 66.41 184.48
  Z
  M 156.07 260.71
  Q 150.53 248.53 146.91 238.70
  Q 146.53 237.69 146.51 236.66
  C 146.42 233.13 142.18 232.77 141.41 236.28
  Q 140.13 242.05 137.96 246.95
  C 132.98 258.21 128.26 269.99 121.61 280.47
  A 1.64 1.63 -53.1 0 0 121.90 282.57
  C 122.76 283.34 123.70 284.18 124.77 284.67
  Q 133.66 288.77 139.81 295.23
  C 142.47 298.03 145.80 297.77 148.36 295.15
  Q 152.75 290.66 158.44 287.03
  C 161.09 285.34 164.35 284.76 166.42 282.20
  Q 166.82 281.71 166.55 281.14
  Q 164.88 277.53 162.72 273.83
  C 160.24 269.59 158.15 265.29 156.07 260.71
  Z
  M 84.57 320.90
  Q 85.72 311.58 86.95 301.83
  Q 87.43 297.95 83.63 297.24
  C 67.25 294.18 54.65 283.68 48.11 268.19
  C 46.38 264.08 41.33 264.55 37.89 265.30
  Q 35.10 265.91 35.08 269.03
  Q 34.91 296.96 35.06 325.76
  Q 35.08 329.97 39.29 329.98
  Q 59.41 330.04 79.70 329.98
  C 83.52 329.97 84.09 327.16 84.28 324.11
  Q 84.38 322.46 84.57 320.90
  Z
  M 215.94 293.67
  Q 210.88 296.12 203.58 297.44
  C 199.69 298.15 200.97 304.46 201.48 306.86
  C 202.61 312.16 203.33 317.71 203.36 323.18
  C 203.39 326.44 204.47 329.95 208.38 329.96
  Q 228.31 330.06 248.98 329.95
  Q 252.86 329.93 252.89 326.05
  Q 253.13 296.12 252.86 269.00
  Q 252.83 265.86 250.29 265.35
  C 246.19 264.51 241.56 263.96 239.60 268.71
  Q 232.62 285.60 215.94 293.67
  Z
  M 130.93 319.79
  C 128.21 313.81 124.86 309.14 119.22 306.46
  C 116.19 305.02 113.04 302.67 109.74 305.12
  Q 109.34 305.42 109.22 305.90
  Q 107.05 314.22 106.14 324.27
  C 105.92 326.66 107.01 329.90 109.93 329.94
  Q 118.82 330.06 128.55 330.00
  C 134.61 329.97 132.43 323.09 130.93 319.79
  Z
  M 157.11 319.75
  Q 155.95 322.71 155.55 325.81
  C 155.15 328.86 157.92 329.88 160.39 329.92
  Q 169.57 330.08 178.42 329.96
  C 181.68 329.91 182.00 326.06 181.79 323.65
  Q 180.95 314.20 178.73 305.90
  Q 178.60 305.43 178.22 305.12
  Q 176.25 303.53 173.70 304.33
  Q 161.66 308.16 157.11 319.75
  Z
  M 130.36 394.13
  C 132.23 394.41 132.98 392.48 132.99 390.95
  Q 133.04 374.81 132.93 359.25
  C 132.91 355.80 133.83 352.27 128.56 352.08
  Q 119.66 351.75 112.04 352.18
  Q 109.69 352.31 109.87 354.66
  C 110.62 364.73 116.20 373.73 121.34 382.43
  Q 124.93 388.49 129.85 393.86
  A 0.86 0.82 71.6 0 0 130.36 394.13
  Z
  M 173.90 369.30
  C 175.90 365.43 178.91 357.80 177.79 353.34
  Q 177.47 352.04 176.12 352.03
  L 158.84 351.99
  Q 155.19 351.98 155.13 355.62
  Q 154.83 373.39 154.99 390.42
  C 155.00 391.83 155.36 393.40 156.84 393.96
  A 1.84 1.84 0.0 0 0 158.87 393.46
  Q 161.77 390.16 163.70 387.17
  Q 168.59 379.60 173.90 369.30
  Z"
/>
</svg>
